<?xml version="1.0" encoding="UTF-8"?>
<!-- Generator: Adobe Illustrator 25.0.0, SVG Export Plug-In . SVG Version: 6.00 Build 0)  -->
<svg preserveAspectRatio="xMidYMid slice" width="1400px" height="788px" xmlns="http://www.w3.org/2000/svg" xmlns:xlink="http://www.w3.org/1999/xlink" version="1.1" id="Layer_1" x="0px" y="0px" viewBox="0 0 55.4 55.42" style="enable-background:new 0 0 55.4 55.42;" xml:space="preserve">
<g>
	<path style="fill:none;stroke:#000000;stroke-width:1.4173;stroke-linecap:round;stroke-linejoin:round;" d="M29.49,54.71   l-6.64-7.46c-1.37-1.54-1.23-3.91,0.31-5.28c1.54-1.37,3.91-1.23,5.28,0.31l4.65,5.23v-21.6c0-1.99,1.61-3.6,3.6-3.6   s3.6,1.61,3.6,3.6v16.2h3.6c5.96,0,10.8,4.84,10.8,10.8v1.8"></path>
	<path style="fill:none;stroke:#000000;stroke-width:1.4173;stroke-linecap:round;stroke-linejoin:round;" d="M5.18,54.45   c-1.22-2.01-2.2-4.15-2.92-6.38"></path>
	<path style="fill:none;stroke:#000000;stroke-width:1.4173;stroke-linecap:round;stroke-linejoin:round;" d="M0.87,41.55   c-0.24-2.34-0.21-4.69,0.08-7.02"></path>
	<path style="fill:none;stroke:#000000;stroke-width:1.4173;stroke-linecap:round;stroke-linejoin:round;" d="M2.55,28.04   c0.8-2.21,1.86-4.31,3.16-6.27"></path>
	<path style="fill:none;stroke:#000000;stroke-width:1.4173;stroke-linecap:round;stroke-linejoin:round;" d="M9.94,16.61   c1.68-1.64,3.54-3.08,5.55-4.29"></path>
	<path style="fill:none;stroke:#000000;stroke-width:1.4173;stroke-linecap:round;stroke-linejoin:round;" d="M21.56,9.54   c1.11-0.4,2.24-0.71,3.39-0.92"></path>
	
		<line style="fill:none;stroke:#000000;stroke-width:1.4173;stroke-linecap:round;stroke-linejoin:round;" x1="33.09" y1="0.71" x2="43.89" y2="11.51"></line>
	
		<line style="fill:none;stroke:#000000;stroke-width:1.4173;stroke-linecap:round;stroke-linejoin:round;" x1="43.89" y1="0.71" x2="33.09" y2="11.51"></line>
</g>
</svg>
