<?xml version="1.0" encoding="UTF-8"?>
<!-- Generator: Adobe Illustrator 25.0.0, SVG Export Plug-In . SVG Version: 6.00 Build 0)  -->
<svg preserveAspectRatio="xMidYMid slice" width="1400px" height="788px" xmlns="http://www.w3.org/2000/svg" xmlns:xlink="http://www.w3.org/1999/xlink" version="1.1" id="Layer_1" x="0px" y="0px" viewBox="0 0 55.42 55.42" style="enable-background:new 0 0 55.42 55.42;" xml:space="preserve">
<g>
	<path style="fill:none;stroke:#000000;stroke-width:1.4173;stroke-linecap:round;stroke-linejoin:round;" d="M14.36,36.71   c-2.98-7.37,0.59-15.77,7.96-18.74s15.77,0.59,18.74,7.96c1.4,3.46,1.4,7.32,0,10.78"></path>
	<path style="fill:none;stroke:#000000;stroke-width:1.4173;stroke-linecap:round;stroke-linejoin:round;" d="M23.29,17.6l4.06,5.43   c1.19,1.59,0.87,3.85-0.72,5.04l0,0l-4.32,3.24v1.8c0,1.99-1.61,3.6-3.6,3.6"></path>
	<path style="fill:none;stroke:#000000;stroke-width:1.4173;stroke-linecap:round;stroke-linejoin:round;" d="M41.23,26.34   l-5.53,2.78c-1.51,0.75-2.29,2.46-1.88,4.09l0.89,3.49"></path>
	
		<line style="fill:none;stroke:#000000;stroke-width:1.4173;stroke-linecap:round;stroke-linejoin:round;" x1="15.11" y1="4.31" x2="15.11" y2="0.71"></line>
	
		<line style="fill:none;stroke:#000000;stroke-width:1.4173;stroke-linecap:round;stroke-linejoin:round;" x1="40.31" y1="4.31" x2="40.31" y2="0.71"></line>
	<path style="fill:none;stroke:#000000;stroke-width:1.4173;stroke-linecap:round;stroke-linejoin:round;" d="M16.92,43.91   c0,1.99,1.61,3.6,3.6,3.6h14.4c1.99,0,3.6-1.61,3.6-3.6"></path>
	<path style="fill:none;stroke:#000000;stroke-width:1.4173;stroke-linecap:round;stroke-linejoin:round;" d="M3.11,36.71h49.2   c1.33,0,2.4,1.07,2.4,2.4v13.2c0,1.33-1.07,2.4-2.4,2.4H3.11c-1.33,0-2.4-1.07-2.4-2.4v-13.2C0.71,37.78,1.78,36.71,3.11,36.71z"></path>
	<path style="fill:none;stroke:#000000;stroke-width:1.4173;stroke-linecap:round;stroke-linejoin:round;" d="M6.12,36.71V7.91   c0-1.99,1.61-3.6,3.6-3.6h36c1.99,0,3.6,1.61,3.6,3.6l0,0v28.8"></path>
</g>
</svg>
