<?xml version="1.0" encoding="UTF-8"?>
<!-- Generator: Adobe Illustrator 25.0.0, SVG Export Plug-In . SVG Version: 6.00 Build 0)  -->
<svg xmlns="http://www.w3.org/2000/svg" xmlns:xlink="http://www.w3.org/1999/xlink" version="1.1" id="Layer_1" x="0px" y="0px" viewBox="0 0 1432.23 92.54" style="enable-background:new 0 0 1432.23 92.54;" xml:space="preserve">
<g>
	<path d="M699.74,213.54c-272.78,0-545.57,0-818.35,0c-2.93,0-5.85,0.02-8.78-0.06c-1.11-0.03-2.23-0.24-3.31-0.51   c-0.92-0.23-1.55-0.92-1.78-1.85c-0.22-0.87-0.4-1.76-0.44-2.65c-0.08-2.02-0.08-4.05-0.08-6.08c0-49.74-0.01-99.48,0.01-149.22   c0-2.7,0.1-5.4,0.27-8.09c0.1-1.66,1.43-2.95,3.01-3.16c0.89-0.12,1.79-0.2,2.68-0.21c8.32-0.06,16.65-0.11,24.97-0.12   c1.57,0,3.23-0.12,4.69,0.33c2.64,0.81,5.22,1.11,7.96,0.67c1.06-0.17,2.24,0.15,3.33,0.41c7.48,1.79,15.09,2.33,22.74,2.62   c0.45,0.02,0.9,0.01,1.35,0.05c3.81,0.29,7.62,0.79,11.44,0.82c3.59,0.02,7.18-0.45,10.76-0.71c1.57-0.11,3.16-0.11,4.71-0.37   c4.67-0.79,9.36-1.34,14.11-1.1c0.22,0.01,0.45,0.02,0.67-0.02c6.68-1.21,13.47-0.77,20.19-1.38c5.59-0.51,11.2-0.88,16.69-2.28   c2.39-0.61,4.86-1.03,7.36-0.75c1.87,0.21,3.54-0.13,5.09-1.27c2.08-1.52,4.5-2.03,7.03-1.99c7.87,0.12,15.74-0.78,23.61,0.09   c1.3,0.14,2.7-0.09,3.98-0.44c3.5-0.96,7.06-1.35,10.67-1.45c2.24-0.06,4.48-0.36,6.72-0.56c4.72-0.43,9.41-0.57,14.11,0.39   c4.24,0.86,8.55,0.75,12.71-0.38c4.39-1.2,8.82-1.71,13.34-1.7c3.84,0.01,7.53-0.64,11.26-1.77c4.68-1.42,9.44-2.85,14.52-2.61   c2.9,0.14,5.83-0.32,8.74-0.64c0.86-0.09,1.74-0.48,2.48-0.95c3.3-2.06,7.03-2.99,10.66-4.17c1.06-0.34,2.2-0.6,3.31-0.59   c3.86,0.02,7.59-0.82,11.37-1.37c6.9-0.99,13.84-1.67,20.71-2.82c6.89-1.16,13.81-1.69,20.78-2.03c6.06-0.3,12.08-1.18,18.13-1.77   c1.56-0.15,3.15-0.31,4.71-0.22c1.32,0.07,2.77,0.23,3.91,0.82c2.27,1.18,4.63,1.61,7.13,1.82c1.78,0.15,3.53,0.63,5.31,0.88   c3.38,0.48,6.67,0.58,9.85-1.16c1.32-0.73,2.99-0.99,4.53-1.13c3.36-0.3,6.75-0.38,10.1,0.23c1.6,0.29,3.11,0.18,4.6-0.55   c1.63-0.81,3.4-1.12,5.22-1.25c2.91-0.21,5.82-0.48,8.74-0.72c0.45-0.04,0.92-0.13,1.35-0.04c5.52,1.19,11.24,0.31,16.76,1.6   c2.17,0.51,4.46,0.52,6.69,0.76c2.23,0.24,4.48,0.4,6.69,0.76c5.17,0.84,10.3,0.72,15.42-0.32c1.76-0.36,3.51-0.81,5.29-1.07   c4.02-0.6,8.04-0.95,12.06,0.05c3.62,0.9,7.16,0.46,10.61-0.83c1.69-0.63,3.39-1.24,5.01-2.01c2.45-1.16,5.02-1.95,7.6-2.75   c4.1-1.28,8.24-2.07,12.54-2.43c5.15-0.42,10.29-1.06,15.46-1.31c1.78-0.08,3.55-0.54,5.3-0.91c2.2-0.47,4.38-1.02,6.56-1.57   c3.1-0.78,6.15-0.9,9.33-0.22c3.54,0.76,7.19,0.48,10.75-0.11c5.59-0.92,11.14-1.52,16.77-0.3c1.07,0.23,2.26,0.14,3.35-0.04   c2.91-0.49,5.83-0.41,8.75-0.36c5.18,0.09,10.36,0.05,15.49-0.78c3.14-0.51,6.27-0.48,9.42-0.06c5.83,0.78,11.64,0.79,17.49-0.12   c7.23-1.13,14.38-0.31,21.36,1.78c3.03,0.91,6.06,1.68,9.17,2.19c3.33,0.55,6.6,1.3,9.75,2.64c5.45,2.31,11.23,3.19,17.09,3.64   c2.91,0.22,5.82,0.55,8.73,0.75c1.56,0.1,3.21,0.32,4.7-0.02c5.35-1.23,10.74-1.11,16.13-0.72c5.01,0.36,9.89,0.01,14.67-1.56   c3.47-1.14,7.05-1.41,10.67-1.26c2.02,0.08,4.06,0.13,6.06,0.37c5.9,0.72,11.63,0.03,17.36-1.5c7.41-1.98,14.97-3.1,22.66-3.1   c4.74,0,9.45-0.09,14.04-1.48c1.76-0.53,3.56-0.52,5.35-0.17c3.31,0.65,6.64,1.23,9.91,2.05c2.23,0.56,4.39,0.78,6.66,0.45   c4.03-0.59,8.06-0.68,12.08,0.27c1.99,0.47,4.04,0.41,6.04-0.03c2.26-0.51,4.45-0.3,6.68,0.2c6.57,1.5,13.28,2.32,19.86,3.82   c1.95,0.44,4.02,0.5,6.03,0.51c4.06,0.04,8.07,0.32,12.1,0.91c4.89,0.72,9.84,1.05,14.77,1.47c1.34,0.12,2.72,0.11,4.04-0.09   c4.47-0.65,8.98-0.56,13.47-0.78c2.47-0.12,4.96-0.16,7.4-0.53c7.61-1.14,15.26-0.96,22.91-0.87c2.02,0.02,4.05,0.19,6.07,0.16   c10.82-0.21,21.58,0.59,32.32,1.9c2.91,0.36,5.85,0.53,8.74-0.06c2.67-0.55,5.35-0.66,8.06-0.6c0.9,0.02,1.81,0.02,2.7-0.09   c5.86-0.76,11.66-0.04,17.47,0.68c2.45,0.3,4.93,0.46,7.39,0.48c9.9,0.09,19.8,0.06,29.7,0.15c2.47,0.02,4.96,0.14,7.39,0.57   c3.34,0.59,6.69,0.94,10.07,0.87c5.43-0.12,10.76,0.88,16.13,1.34c1.11,0.09,2.2,0.45,3.29,0.73c4.58,1.16,9.17,2.3,13.94,2.35   c2.05,0.02,4,0.55,5.89,1.33c2.92,1.19,5.84,2.38,8.78,3.49c2.77,1.04,5.21,2.53,7.51,4.41c4.05,3.31,8.88,4.52,13.93,3.35   c4.38-1.02,8.79-1.88,13.15-2.99c4.38-1.12,8.78-1.93,13.33-1.87c1.57,0.02,3.17-0.02,4.71-0.29c3.35-0.59,6.67-0.73,10.07-0.41   c3.61,0.34,7.17-0.51,10.7-1.22c3.96-0.8,7.81-2.08,11.89-2.41c1.52-0.12,3.04-0.82,4.48-1.43c2.16-0.92,4.37-1.11,6.61-0.66   c5.57,1.13,11.21,1.13,16.82,0.79c7.85-0.47,15.69-1.22,23.53-1.91c4.03-0.36,8.04-0.96,12.08-1.26c1.77-0.13,3.58,0.15,5.37,0.33   c6.52,0.67,13.01,0.93,19.49-0.45c1.97-0.42,4.02-0.51,6.04-0.55c4.05-0.09,8.04-0.51,12.07-1.06c5.56-0.76,11.23-0.8,16.8,0.39   c3.3,0.71,6.57,1.56,9.86,2.31c3.29,0.75,6.59,1.41,9.88,2.17c1.75,0.4,3.5,0.82,5.19,1.42c9.36,3.35,18.9,4.04,28.57,1.8   c6.42-1.48,12.87-1.97,19.43-1.68c4.72,0.2,9.45,0.17,14.18,0.25c1.13,0.02,2.25-0.02,3.38,0.03c6.26,0.31,12.49-2.16,18.77-0.29   c6.3,0.09,12.6,0.3,18.9,0.24c3.36-0.03,6.74-0.39,10.07-0.84c2.93-0.4,5.82-0.55,8.72,0.09c0.22,0.05,0.44,0.11,0.66,0.12   c9.43,0.55,18.86,1.1,28.28,1.65c6.05-1.02,12.09-0.76,18.12,0.22c6.24-0.56,12.04,0.88,17.56,3.78c1.37,0.72,2.94,1.15,4.47,1.49   c1.78,0.39,3.42,0.98,5.02,1.88c2.8,1.57,5.89,2.16,9.08,2.27c3.38,0.11,6.75,0.07,10.08-0.63c3.74-0.78,7.51-1.46,11.24-2.31   c2.86-0.66,5.73-1.12,8.66-1.32c4.49-0.31,9-0.57,13.44-1.25c3.76-0.58,7.47-1.62,11.15-2.63c3.95-1.09,7.92-1.64,12.01-1.24   c1.7,0.16,2.95,1.33,3.16,2.97c0.11,0.89,0.2,1.79,0.22,2.69c0.04,1.8,0.04,3.6,0.04,5.4c0,56.04,0,112.08-0.01,168.13   c0,2.7-0.05,5.4-0.28,8.09c-0.18,2.06-1.4,2.82-3.06,3.04c-1.11,0.15-2.24,0.2-3.36,0.22c-2.48,0.03-4.95,0.02-7.43,0.02   C1245.31,213.54,972.52,213.54,699.74,213.54z"></path>
</g>
</svg>
