<?xml version="1.0" encoding="UTF-8"?>
<!-- Generator: Adobe Illustrator 25.0.0, SVG Export Plug-In . SVG Version: 6.00 Build 0)  -->
<svg preserveAspectRatio="xMidYMid slice" width="350px" height="197px" xmlns="http://www.w3.org/2000/svg" xmlns:xlink="http://www.w3.org/1999/xlink" version="1.1" id="Layer_1" x="0px" y="0px" viewBox="0 0 55.42 55.42" style="enable-background:new 0 0 55.42 55.42;" xml:space="preserve">
<g>
	
		<circle style="fill:none;stroke:#000000;stroke-width:1.4173;stroke-linecap:round;stroke-linejoin:round;" cx="9.71" cy="41.21" r="6.3"></circle>
	<path style="fill:none;stroke:#000000;stroke-width:1.4173;stroke-linecap:round;stroke-linejoin:round;" d="M18.71,54.71   c-2.65-4.97-8.83-6.85-13.8-4.2c-1.79,0.95-3.25,2.41-4.2,4.2"></path>
	
		<circle style="fill:none;stroke:#000000;stroke-width:1.4173;stroke-linecap:round;stroke-linejoin:round;" cx="45.71" cy="41.21" r="6.3"></circle>
	<path style="fill:none;stroke:#000000;stroke-width:1.4173;stroke-linecap:round;stroke-linejoin:round;" d="M54.71,54.71   c-2.65-4.97-8.83-6.85-13.8-4.2c-1.79,0.95-3.25,2.41-4.2,4.2"></path>
	
		<circle style="fill:none;stroke:#000000;stroke-width:1.4173;stroke-linecap:round;stroke-linejoin:round;" cx="27.71" cy="7.01" r="6.3"></circle>
	<path style="fill:none;stroke:#000000;stroke-width:1.4173;stroke-linecap:round;stroke-linejoin:round;" d="M35.51,18.71   c-3.67-4.31-10.14-4.83-14.44-1.16c-0.42,0.35-0.8,0.74-1.16,1.16"></path>
	<path style="fill:none;stroke:#000000;stroke-width:1.4173;stroke-linecap:round;stroke-linejoin:round;" d="M20.63,46.21   c4.6,1.75,9.68,1.74,14.27-0.04"></path>
	<path style="fill:none;stroke:#000000;stroke-width:1.4173;stroke-linecap:round;stroke-linejoin:round;" d="M14.15,13.31   c-3.98,3.73-6.24,8.94-6.24,14.4c0,0.61,0.04,1.2,0.09,1.8"></path>
	<path style="fill:none;stroke:#000000;stroke-width:1.4173;stroke-linecap:round;stroke-linejoin:round;" d="M47.42,29.51   c0.05-0.6,0.09-1.2,0.09-1.8c0-5.46-2.26-10.67-6.24-14.4"></path>
</g>
</svg>
