<?xml version="1.0" encoding="UTF-8"?>
<!-- Generator: Adobe Illustrator 25.0.0, SVG Export Plug-In . SVG Version: 6.00 Build 0)  -->
<svg width="300px" height="208px" xmlns="http://www.w3.org/2000/svg" xmlns:xlink="http://www.w3.org/1999/xlink" version="1.1" id="Layer_1" x="0px" y="0px" viewBox="0 0 118 82.6" style="enable-background:new 0 0 118 82.6;" xml:space="preserve">
<g>
	<path style="fill:#F7F1E2;" d="M6.3,62.9H0.39C0.15,62.9,0,63.02,0,63.29V82.2c0,0.25,0.15,0.39,0.39,0.39H6.3   c2.31,0,3.57-1.23,3.57-3.55v-4.53c0-0.91-0.66-1.6-1.55-1.75v-0.05c0.89-0.15,1.55-0.84,1.55-1.75v-4.53   C9.87,64.13,8.62,62.9,6.3,62.9z M6.6,78.36c0,0.66-0.34,0.98-0.98,0.98H3.37v-4.97h2.24c0.66,0,0.98,0.34,0.98,0.99V78.36z    M6.6,70.16c0,0.62-0.34,0.96-0.98,0.96H3.37v-4.97h2.24c0.66,0,0.98,0.34,0.98,0.98V70.16z"></path>
	<path style="fill:#F7F1E2;" d="M18.91,62.9h-6.18c-0.25,0-0.39,0.15-0.39,0.39V82.2c0,0.25,0.15,0.39,0.39,0.39h2.56   c0.25,0,0.39-0.15,0.39-0.39V76h1.7l1.65,6.25c0.05,0.22,0.17,0.34,0.42,0.34h2.56c0.27,0,0.42-0.15,0.34-0.44l-1.7-6.45   c1.18-0.52,1.8-1.6,1.8-3.25v-6.01C22.46,64.13,21.23,62.9,18.91,62.9z M19.11,71.76c0,0.64-0.34,0.98-0.99,0.98h-2.44v-6.6h2.44   c0.64,0,0.99,0.34,0.99,0.98V71.76z"></path>
	<path style="fill:#F7F1E2;" d="M32.31,63.24c-0.05-0.25-0.2-0.34-0.42-0.34h-3.42c-0.22,0-0.37,0.1-0.42,0.34l-4.09,18.94   c-0.07,0.27,0.05,0.42,0.32,0.42h2.63c0.22,0,0.34-0.12,0.39-0.34l0.66-3.6h4.38l0.69,3.6c0.05,0.22,0.17,0.34,0.39,0.34h2.61   c0.3,0,0.39-0.15,0.34-0.42L32.31,63.24z M28.59,75.8l1.58-8.59l1.58,8.59H28.59z"></path>
	<path style="fill:#F7F1E2;" d="M48.48,62.9h-2.56c-0.27,0-0.39,0.15-0.39,0.39v10.39h-0.15l-3.74-10.47   c-0.07-0.22-0.22-0.32-0.44-0.32h-2.44c-0.25,0-0.39,0.15-0.39,0.39V82.2c0,0.25,0.15,0.39,0.39,0.39h2.56   c0.27,0,0.39-0.15,0.39-0.39V71.76h0.12l3.77,10.51c0.07,0.22,0.22,0.32,0.44,0.32h2.44c0.25,0,0.39-0.15,0.39-0.39V63.29   C48.88,63.04,48.73,62.9,48.48,62.9z"></path>
	<path style="fill:#F7F1E2;" d="M57.67,62.9h-2.76c-2.31,0-3.57,1.23-3.57,3.55v12.61c0,2.31,1.26,3.55,3.57,3.55h2.76   c2.29,0,3.55-1.23,3.55-3.55v-2.66c0-0.25-0.15-0.39-0.39-0.39h-2.46c-0.27,0-0.39,0.15-0.39,0.39v1.97c0,0.66-0.34,0.98-0.98,0.98   H55.7c-0.64,0-0.98-0.32-0.98-0.98V67.13c0-0.64,0.32-0.98,0.98-0.98h1.28c0.64,0,0.98,0.34,0.98,0.98v1.97   c0,0.25,0.12,0.39,0.39,0.39h2.46c0.25,0,0.39-0.15,0.39-0.39v-2.66C61.21,64.13,59.96,62.9,57.67,62.9z"></path>
	<path style="fill:#F7F1E2;" d="M73.11,62.9h-2.54c-0.25,0-0.39,0.15-0.39,0.39v7.83h-3.15v-7.83c0-0.25-0.15-0.39-0.39-0.39H64.1   c-0.3,0-0.42,0.15-0.42,0.39V82.2c0,0.25,0.12,0.39,0.42,0.39h2.54c0.25,0,0.39-0.15,0.39-0.39v-7.83h3.15v7.83   c0,0.25,0.15,0.39,0.39,0.39h2.54c0.3,0,0.42-0.15,0.42-0.39V63.29C73.53,63.04,73.4,62.9,73.11,62.9z"></path>
	<path style="fill:#F7F1E2;" d="M86.27,62.9h-2.76c-2.31,0-3.55,1.23-3.55,3.55v12.61c0,2.31,1.23,3.55,3.55,3.55h2.76   c2.31,0,3.55-1.23,3.55-3.55V66.44C89.82,64.13,88.59,62.9,86.27,62.9z M86.64,78.43c0,0.66-0.34,0.98-0.98,0.98h-1.43   c-0.64,0-0.99-0.32-0.99-0.98V67.06c0-0.64,0.34-0.98,0.99-0.98h1.43c0.64,0,0.98,0.34,0.98,0.98V78.43z"></path>
	<path style="fill:#F7F1E2;" d="M101.64,62.9h-2.27c-0.27,0-0.49,0.22-0.49,0.49v14.97c0,0.66-0.34,0.98-0.98,0.98h-1.28   c-0.64,0-0.98-0.32-0.98-0.98V63.39c0-0.27-0.22-0.49-0.49-0.49h-2.36c-0.27,0-0.49,0.22-0.49,0.49v15.66   c0,2.31,1.23,3.55,3.55,3.55h2.76c2.31,0,3.55-1.23,3.55-3.55V63.39C102.13,63.12,101.91,62.9,101.64,62.9z"></path>
	<path style="fill:#F7F1E2;" d="M113.95,65.75v-2.46c0-0.25-0.12-0.39-0.39-0.39h-9.06c-0.25,0-0.39,0.15-0.39,0.39v2.46   c0,0.25,0.15,0.39,0.39,0.39h2.86V82.2c0,0.27,0.15,0.39,0.39,0.39h2.56c0.27,0,0.39-0.12,0.39-0.39V66.15h2.86   C113.83,66.15,113.95,66,113.95,65.75z"></path>
	<path style="fill:#F7F1E2;" d="M117.26,78.33c-0.49-0.48-1.1-0.72-1.83-0.72c-0.73,0-1.33,0.24-1.83,0.72   c-0.49,0.48-0.74,1.07-0.74,1.77c0,0.7,0.25,1.29,0.74,1.77c0.49,0.48,1.1,0.72,1.83,0.72c0.73,0,1.33-0.24,1.83-0.72   c0.49-0.48,0.74-1.07,0.74-1.77C118,79.4,117.75,78.81,117.26,78.33z M116.86,81.52c-0.39,0.39-0.87,0.59-1.42,0.59   c-0.55,0-1.03-0.2-1.42-0.59c-0.39-0.39-0.59-0.87-0.59-1.42c0-0.56,0.2-1.03,0.59-1.42c0.39-0.39,0.87-0.59,1.42-0.59   c0.55,0,1.03,0.2,1.42,0.59c0.39,0.39,0.59,0.87,0.59,1.42C117.45,80.66,117.25,81.13,116.86,81.52z"></path>
	<path style="fill:#F7F1E2;" d="M116.11,80.25c0.08-0.04,0.16-0.11,0.24-0.22c0.08-0.11,0.12-0.24,0.12-0.38   c0-0.23-0.08-0.42-0.25-0.59c-0.17-0.16-0.37-0.25-0.61-0.25h-1.08v2.57h0.52v-0.97h0.45l0.52,0.97h0.56l-0.59-1.07L116.11,80.25z    M115.86,79.84c-0.06,0.06-0.15,0.09-0.25,0.09h-0.56v-0.62h0.56c0.1,0,0.18,0.03,0.25,0.09c0.06,0.06,0.1,0.13,0.1,0.22   C115.96,79.7,115.92,79.78,115.86,79.84z"></path>
	<path style="fill:#F7F1E2;" d="M107.99,57.04C107.99,57.04,107.99,57.04,107.99,57.04l4.36,0c0.97,0,1.75-0.8,1.72-1.77   c-0.21-7.07-1.71-13.94-4.46-20.43c-2.87-6.79-6.99-12.89-12.22-18.13S86.05,7.36,79.26,4.48C72.23,1.51,64.76,0,57.06,0   s-15.17,1.51-22.2,4.48c-6.79,2.87-12.89,6.99-18.13,12.22S7.38,28.04,4.5,34.84C1.64,41.6,0.14,48.77,0.03,56.16   c-0.01,0.48,0.38,0.87,0.86,0.87h4.39c0.47,0,0.85-0.37,0.86-0.84c0.11-6.58,1.45-12.96,3.99-18.99   c2.57-6.06,6.24-11.51,10.92-16.19c4.68-4.68,10.13-8.35,16.19-10.92c6.28-2.66,12.95-4,19.82-4s13.55,1.35,19.82,4   c6.06,2.57,11.51,6.24,16.19,10.92c4.68,4.68,8.35,10.13,10.92,16.19c2.26,5.35,3.57,10.98,3.91,16.78l-5.83-8.39l-7.2-10.36   c-0.33-0.48-1.17-0.48-1.5,0l-7.2,10.36l-0.24,0.35l-3.48-5.01L72.01,25.92c-0.33-0.48-1.17-0.48-1.5,0L60.08,40.94l-2.98,4.28   l-4.65-6.69c-0.34-0.49-1.07-0.49-1.41,0l-6.08,8.74l-6.03,8.67c-0.33,0.48,0.08,1.08,0.75,1.08h10.7h1.36H63.8h7.46h8.46h12.41   h1.98H107.99z"></path>
</g>
</svg>
