<?xml version="1.0" encoding="UTF-8"?>
<!-- Generator: Adobe Illustrator 25.0.0, SVG Export Plug-In . SVG Version: 6.00 Build 0)  -->
<svg xmlns="http://www.w3.org/2000/svg" xmlns:xlink="http://www.w3.org/1999/xlink" version="1.1" id="Layer_1" x="0px" y="0px" viewBox="0 0 55.42 55.44" style="enable-background:new 0 0 55.42 55.44;" xml:space="preserve">
<g>
	
		<line style="fill:none;stroke:#000000;stroke-width:1.4173;stroke-linecap:round;stroke-linejoin:round;" x1="35.62" y1="43.21" x2="25.91" y2="54.71"></line>
	<path style="fill:none;stroke:#000000;stroke-width:1.4173;stroke-linecap:round;stroke-linejoin:round;" d="M47.53,54.72   c-2.23-8.18-10.09-12.61-19.78-12.61S10.23,46.55,8.01,54.74"></path>
	
		<line style="fill:none;stroke:#000000;stroke-width:1.4173;stroke-linecap:round;stroke-linejoin:round;" x1="6.11" y1="3.39" x2="2.51" y2="0.71"></line>
	
		<line style="fill:none;stroke:#000000;stroke-width:1.4173;stroke-linecap:round;stroke-linejoin:round;" x1="6.11" y1="16.91" x2="2.51" y2="18.71"></line>
	
		<line style="fill:none;stroke:#000000;stroke-width:1.4173;stroke-linecap:round;stroke-linejoin:round;" x1="5.65" y1="9.71" x2="0.71" y2="9.71"></line>
	
		<line style="fill:none;stroke:#000000;stroke-width:1.4173;stroke-linecap:round;stroke-linejoin:round;" x1="49.31" y1="3.39" x2="52.91" y2="0.71"></line>
	
		<line style="fill:none;stroke:#000000;stroke-width:1.4173;stroke-linecap:round;stroke-linejoin:round;" x1="49.31" y1="16.91" x2="52.91" y2="18.71"></line>
	
		<line style="fill:none;stroke:#000000;stroke-width:1.4173;stroke-linecap:round;stroke-linejoin:round;" x1="49.77" y1="9.71" x2="54.71" y2="9.71"></line>
	<path style="fill:none;stroke:#000000;stroke-width:1.4173;stroke-linecap:round;stroke-linejoin:round;" d="M13.31,18.71v-18   l7.2,5.4l7.2-5.4l7.2,5.4l7.2-5.4v18C32.66,21.11,22.76,21.11,13.31,18.71z"></path>
	<path style="fill:none;stroke:#000000;stroke-width:1.4173;stroke-linecap:round;stroke-linejoin:round;" d="M42.11,18.71v3.6   c0,7.95-6.45,14.4-14.4,14.4l0,0c-7.95,0-14.4-6.45-14.4-14.4v-3.6"></path>
</g>
</svg>
